{
  "accessors": [
    {
      "bufferView": 2,
      "componentType": 5126,
      "count": 2650,
      "max": [
        12610.2080078125,
        11003.064453125,
        28055.70703125
      ],
      "min": [
        -12609.8173828125,
        -2963.652587890625,
        -31045.318359375
      ],
      "type": "VEC3"
    },
    {
      "bufferView": 2,
      "byteOffset": 31800,
      "componentType": 5126,
      "count": 2650,
      "max": [
        1.0,
        1.0,
        1.0
      ],
      "min": [
        -1.0,
        -1.0,
        -1.0
      ],
      "type": "VEC3"
    },
    {
      "bufferView": 1,
      "componentType": 5126,
      "count": 2650,
      "max": [
        10.18986988067627,
        1.7543799877166748
      ],
      "min": [
        -8.722620010375977,
        -1.3046300411224365
      ],
      "type": "VEC2"
    },
    {
      "bufferView": 0,
      "componentType": 5125,
      "count": 4746,
      "type": "SCALAR"
    },
    {
      "bufferView": 2,
      "byteOffset": 63600,
      "componentType": 5126,
      "count": 326,
      "max": [
        1928.83154296875,
        11312.689453125,
        -2203.557861328125
      ],
      "min": [
        -1928.440673828125,
        5029.15478515625,
        -31063.25
      ],
      "type": "VEC3"
    },
    {
      "bufferView": 2,
      "byteOffset": 67512,
      "componentType": 5126,
      "count": 326,
      "max": [
        0.9677743911743164,
        0.2549510598182678,
        0.0
      ],
      "min": [
        -0.9677743911743164,
        -0.8220998048782349,
        -0.9403548836708069
      ],
      "type": "VEC3"
    },
    {
      "bufferView": 1,
      "byteOffset": 21200,
      "componentType": 5126,
      "count": 326,
      "max": [
        0.9998499751091003,
        1.0000499486923218
      ],
      "min": [
        -9.999999747378752e-05,
        0.00019999999494757503
      ],
      "type": "VEC2"
    },
    {
      "bufferView": 0,
      "byteOffset": 18984,
      "componentType": 5125,
      "count": 498,
      "type": "SCALAR"
    },
    {
      "bufferView": 2,
      "byteOffset": 71424,
      "componentType": 5126,
      "count": 17071,
      "max": [
        12345.96875,
        12433.939453125,
        24736.55859375
      ],
      "min": [
        -12345.5771484375,
        3.564079999923706,
        -31098.16796875
      ],
      "type": "VEC3"
    },
    {
      "bufferView": 2,
      "byteOffset": 276276,
      "componentType": 5126,
      "count": 17071,
      "max": [
        1.0,
        1.0,
        1.0
      ],
      "min": [
        -1.0,
        -1.0,
        -1.0
      ],
      "type": "VEC3"
    },
    {
      "bufferView": 1,
      "byteOffset": 23808,
      "componentType": 5126,
      "count": 17071,
      "max": [
        2.30049991607666,
        6.612649917602539
      ],
      "min": [
        -1.3844499588012695,
        -2.3343400955200195
      ],
      "type": "VEC2"
    },
    {
      "bufferView": 0,
      "byteOffset": 20976,
      "componentType": 5125,
      "count": 32028,
      "type": "SCALAR"
    },
    {
      "bufferView": 2,
      "byteOffset": 481128,
      "componentType": 5126,
      "count": 26455,
      "max": [
        12610.2080078125,
        13152.17578125,
        26423.029296875
      ],
      "min": [
        -12609.8173828125,
        -2963.652587890625,
        -31045.318359375
      ],
      "type": "VEC3"
    },
    {
      "bufferView": 2,
      "byteOffset": 798588,
      "componentType": 5126,
      "count": 26455,
      "max": [
        1.0,
        1.0,
        1.0
      ],
      "min": [
        -1.0,
        -1.0,
        -1.0
      ],
      "type": "VEC3"
    },
    {
      "bufferView": 1,
      "byteOffset": 160376,
      "componentType": 5126,
      "count": 26455,
      "max": [
        2.6049599647521973,
        1.8002400398254395
      ],
      "min": [
        -3.1410698890686035,
        -1.2517000436782837
      ],
      "type": "VEC2"
    },
    {
      "bufferView": 0,
      "byteOffset": 149088,
      "componentType": 5125,
      "count": 50385,
      "type": "SCALAR"
    },
    {
      "bufferView": 2,
      "byteOffset": 1116048,
      "componentType": 5126,
      "count": 65532,
      "max": [
        12756.3994140625,
        16289.376953125,
        28149.13671875
      ],
      "min": [
        -12756.0087890625,
        -2602.766845703125,
        -33596.2578125
      ],
      "type": "VEC3"
    },
    {
      "bufferView": 2,
      "byteOffset": 1902432,
      "componentType": 5126,
      "count": 65532,
      "max": [
        1.0,
        1.0,
        1.0
      ],
      "min": [
        -1.0,
        -1.0,
        -1.0
      ],
      "type": "VEC3"
    },
    {
      "bufferView": 1,
      "byteOffset": 372016,
      "componentType": 5126,
      "count": 65532,
      "max": [
        2.9535698890686035,
        8.74779987335205
      ],
      "min": [
        -1.3965699672698975,
        -8.423279762268066
      ],
      "type": "VEC2"
    },
    {
      "bufferView": 0,
      "byteOffset": 350628,
      "componentType": 5125,
      "count": 117897,
      "type": "SCALAR"
    },
    {
      "bufferView": 2,
      "byteOffset": 2688816,
      "componentType": 5126,
      "count": 27899,
      "max": [
        12756.3994140625,
        13691.294921875,
        28149.13671875
      ],
      "min": [
        -12756.0087890625,
        -2033.009521484375,
        -32885.62109375
      ],
      "type": "VEC3"
    },
    {
      "bufferView": 2,
      "byteOffset": 3023604,
      "componentType": 5126,
      "count": 27899,
      "max": [
        1.0,
        1.0,
        1.0
      ],
      "min": [
        -1.0,
        -1.0,
        -1.0
      ],
      "type": "VEC3"
    },
    {
      "bufferView": 1,
      "byteOffset": 896272,
      "componentType": 5126,
      "count": 27899,
      "max": [
        2.9431800842285156,
        3.321229934692383
      ],
      "min": [
        -1.8634999990463257,
        -2.280630111694336
      ],
      "type": "VEC2"
    },
    {
      "bufferView": 0,
      "byteOffset": 822216,
      "componentType": 5125,
      "count": 49971,
      "type": "SCALAR"
    },
    {
      "bufferView": 2,
      "byteOffset": 3358392,
      "componentType": 5126,
      "count": 17574,
      "max": [
        12785.3251953125,
        16340.3427734375,
        27752.763671875
      ],
      "min": [
        -12784.9345703125,
        -1586.39501953125,
        -31624.77734375
      ],
      "type": "VEC3"
    },
    {
      "bufferView": 2,
      "byteOffset": 3569280,
      "componentType": 5126,
      "count": 17574,
      "max": [
        1.0,
        1.0,
        1.0
      ],
      "min": [
        -1.0,
        -1.0,
        -1.0
      ],
      "type": "VEC3"
    },
    {
      "bufferView": 1,
      "byteOffset": 1119464,
      "componentType": 5126,
      "count": 17574,
      "max": [
        2.2785699367523193,
        1.399359941482544
      ],
      "min": [
        -1.2788300514221191,
        0.00019999999494757503
      ],
      "type": "VEC2"
    },
    {
      "bufferView": 0,
      "byteOffset": 1022100,
      "componentType": 5125,
      "count": 28080,
      "type": "SCALAR"
    },
    {
      "bufferView": 2,
      "byteOffset": 3780168,
      "componentType": 5126,
      "count": 2120,
      "max": [
        3469.526611328125,
        10443.9130859375,
        9126.0888671875
      ],
      "min": [
        -3469.13037109375,
        -1830.0296630859375,
        -14716.66015625
      ],
      "type": "VEC3"
    },
    {
      "bufferView": 2,
      "byteOffset": 3805608,
      "componentType": 5126,
      "count": 2120,
      "max": [
        1.0,
        0.9681496024131775,
        0.9792531728744507
      ],
      "min": [
        -1.0,
        -0.9681496024131775,
        -0.9792591333389282
      ],
      "type": "VEC3"
    },
    {
      "bufferView": 1,
      "byteOffset": 1260056,
      "componentType": 5126,
      "count": 2120,
      "max": [
        0.9631999731063843,
        0.4189000129699707
      ],
      "min": [
        0.8174600005149841,
        0.02508999966084957
      ],
      "type": "VEC2"
    },
    {
      "bufferView": 0,
      "byteOffset": 1134420,
      "componentType": 5125,
      "count": 3564,
      "type": "SCALAR"
    },
    {
      "bufferView": 2,
      "byteOffset": 3831048,
      "componentType": 5126,
      "count": 15501,
      "max": [
        12807.21484375,
        15096.244140625,
        26119.142578125
      ],
      "min": [
        -12806.82421875,
        -2214.188720703125,
        -29993.04296875
      ],
      "type": "VEC3"
    },
    {
      "bufferView": 2,
      "byteOffset": 4017060,
      "componentType": 5126,
      "count": 15501,
      "max": [
        1.0,
        1.0,
        1.0
      ],
      "min": [
        -1.0,
        -1.0,
        -1.0
      ],
      "type": "VEC3"
    },
    {
      "bufferView": 1,
      "byteOffset": 1277016,
      "componentType": 5126,
      "count": 15501,
      "max": [
        0.9932100176811218,
        2.1513400077819824
      ],
      "min": [
        -0.8202700018882751,
        0.00019999999494757503
      ],
      "type": "VEC2"
    },
    {
      "bufferView": 0,
      "byteOffset": 1148676,
      "componentType": 5125,
      "count": 26838,
      "type": "SCALAR"
    },
    {
      "bufferView": 2,
      "byteOffset": 4203072,
      "componentType": 5126,
      "count": 18310,
      "max": [
        12281.86328125,
        10206.169921875,
        28055.70703125
      ],
      "min": [
        -12281.4716796875,
        -1613.79296875,
        -31219.912109375
      ],
      "type": "VEC3"
    },
    {
      "bufferView": 2,
      "byteOffset": 4422792,
      "componentType": 5126,
      "count": 18310,
      "max": [
        1.0,
        1.0,
        1.0
      ],
      "min": [
        -1.0,
        -1.0,
        -1.0
      ],
      "type": "VEC3"
    },
    {
      "bufferView": 1,
      "byteOffset": 1401024,
      "componentType": 5126,
      "count": 18310,
      "max": [
        2.0032598972320557,
        2.095789909362793
      ],
      "min": [
        -0.8681700229644775,
        -1.142699956893921
      ],
      "type": "VEC2"
    },
    {
      "bufferView": 0,
      "byteOffset": 1256028,
      "componentType": 5125,
      "count": 37608,
      "type": "SCALAR"
    },
    {
      "bufferView": 2,
      "byteOffset": 4642512,
      "componentType": 5126,
      "count": 618,
      "max": [
        12671.7314453125,
        11004.5380859375,
        26222.01171875
      ],
      "min": [
        -12671.3388671875,
        -1567.2459716796875,
        -28987.013671875
      ],
      "type": "VEC3"
    },
    {
      "bufferView": 2,
      "byteOffset": 4649928,
      "componentType": 5126,
      "count": 618,
      "max": [
        1.0,
        1.0,
        0.2251715064048767
      ],
      "min": [
        -1.0,
        -1.0,
        -0.006230176892131567
      ],
      "type": "VEC3"
    },
    {
      "bufferView": 1,
      "byteOffset": 1547504,
      "componentType": 5126,
      "count": 618,
      "max": [
        1.3995399475097656,
        0.99795001745224
      ],
      "min": [
        -0.15911999344825745,
        0.004129999782890081
      ],
      "type": "VEC2"
    },
    {
      "bufferView": 0,
      "byteOffset": 1406460,
      "componentType": 5125,
      "count": 936,
      "type": "SCALAR"
    },
    {
      "bufferView": 2,
      "byteOffset": 4657344,
      "componentType": 5126,
      "count": 5259,
      "max": [
        5584.01513671875,
        6703.36962890625,
        28123.65625
      ],
      "min": [
        -5583.62451171875,
        -1958.4755859375,
        -19197.556640625
      ],
      "type": "VEC3"
    },
    {
      "bufferView": 2,
      "byteOffset": 4720452,
      "componentType": 5126,
      "count": 5259,
      "max": [
        1.0,
        1.0,
        1.0
      ],
      "min": [
        -1.0,
        -0.9987711906433105,
        -0.9999362230300903
      ],
      "type": "VEC3"
    },
    {
      "bufferView": 1,
      "byteOffset": 1552448,
      "componentType": 5126,
      "count": 5259,
      "max": [
        0.9851300120353699,
        0.9976900219917297
      ],
      "min": [
        0.11474999785423279,
        0.029810000211000443
      ],
      "type": "VEC2"
    },
    {
      "bufferView": 0,
      "byteOffset": 1410204,
      "componentType": 5125,
      "count": 8256,
      "type": "SCALAR"
    },
    {
      "bufferView": 2,
      "byteOffset": 4783560,
      "componentType": 5126,
      "count": 4564,
      "max": [
        5819.72021484375,
        7013.28955078125,
        28237.849609375
      ],
      "min": [
        -5819.3291015625,
        1431.1983642578125,
        26842.99609375
      ],
      "type": "VEC3"
    },
    {
      "bufferView": 2,
      "byteOffset": 4838328,
      "componentType": 5126,
      "count": 4564,
      "max": [
        0.9872048497200012,
        0.9870160818099976,
        1.0
      ],
      "min": [
        -0.9872048497200012,
        -0.9870160818099976,
        0.15155118703842163
      ],
      "type": "VEC3"
    },
    {
      "bufferView": 1,
      "byteOffset": 1594520,
      "componentType": 5126,
      "count": 4564,
      "max": [
        0.9963799715042114,
        0.7849299907684326
      ],
      "min": [
        0.9392399787902832,
        0.6243199706077576
      ],
      "type": "VEC2"
    },
    {
      "bufferView": 0,
      "byteOffset": 1443228,
      "componentType": 5125,
      "count": 7200,
      "type": "SCALAR"
    }
  ],
  "asset": {
    "extras": {
      "author": "NepsterCZ (https://sketchfab.com/NepsterCZ)",
      "license": "CC-BY-4.0 (http://creativecommons.org/licenses/by/4.0/)",
      "source": "https://sketchfab.com/3d-models/halo-unsc-panama-mulsanne-class-8102cecc825e4fafbc1d217c9c4c2bb7",
      "title": "Halo - UNSC Panama | Mulsanne-class"
    },
    "generator": "Sketchfab-12.42.0",
    "version": "2.0"
  },
  "bufferViews": [
    {
      "buffer": 0,
      "byteLength": 1472028,
      "name": "floatBufferViews",
      "target": 34963
    },
    {
      "buffer": 0,
      "byteLength": 1631032,
      "byteOffset": 1472028,
      "byteStride": 8,
      "name": "floatBufferViews",
      "target": 34962
    },
    {
      "buffer": 0,
      "byteLength": 4893096,
      "byteOffset": 3103060,
      "byteStride": 12,
      "name": "floatBufferViews",
      "target": 34962
    }
  ],
  "buffers": [
    {
      "byteLength": 7996156,
      "uri": "scene.bin"
    }
  ],
  "images": [
    {
      "uri": "textures/Panel_Dark_baseColor.png"
    },
    {
      "uri": "textures/Panel_Light_metallicRoughness.png"
    },
    {
      "uri": "textures/Common_Parts_baseColor.png"
    },
    {
      "uri": "textures/Decals_baseColor.png"
    }
  ],
  "materials": [
    {
      "doubleSided": true,
      "name": "Trims",
      "pbrMetallicRoughness": {
        "baseColorFactor": [
          0.12554694619288637,
          0.12554694619288637,
          0.12554694619288637,
          1.0
        ],
        "metallicFactor": 0.0,
        "roughnessFactor": 0.5
      }
    },
    {
      "alphaMode": "BLEND",
      "doubleSided": true,
      "name": "Glass",
      "pbrMetallicRoughness": {
        "baseColorFactor": [
          0.7658750568001036,
          0.7579697625090449,
          1.0,
          0.3482799190120935
        ],
        "roughnessFactor": 0.5
      }
    },
    {
      "doubleSided": true,
      "name": "Panel_Dark",
      "pbrMetallicRoughness": {
        "baseColorTexture": {
          "index": 0
        },
        "roughnessFactor": 0.5
      }
    },
    {
      "doubleSided": true,
      "name": "Panel_Light",
      "pbrMetallicRoughness": {
        "baseColorTexture": {
          "index": 0
        },
        "metallicFactor": 0.0,
        "metallicRoughnessTexture": {
          "index": 1
        }
      }
    },
    {
      "doubleSided": true,
      "name": "Greeble_Mid",
      "pbrMetallicRoughness": {
        "baseColorTexture": {
          "index": 0
        },
        "metallicFactor": 0.0
      }
    },
    {
      "doubleSided": true,
      "name": "Emmisive_White",
      "pbrMetallicRoughness": {
        "baseColorFactor": [
          0.0,
          0.0,
          0.0,
          1.0
        ],
        "metallicFactor": 0.0,
        "roughnessFactor": 0.5
      }
    },
    {
      "doubleSided": true,
      "name": "Common_Parts",
      "pbrMetallicRoughness": {
        "baseColorTexture": {
          "index": 2
        },
        "roughnessFactor": 0.5
      }
    },
    {
      "doubleSided": true,
      "name": "Greeble_Light",
      "pbrMetallicRoughness": {
        "baseColorTexture": {
          "index": 0
        },
        "roughnessFactor": 0.5
      }
    },
    {
      "doubleSided": true,
      "name": "Panel_Mid",
      "pbrMetallicRoughness": {
        "baseColorTexture": {
          "index": 0
        },
        "metallicFactor": 0.0,
        "roughnessFactor": 0.5
      }
    },
    {
      "alphaCutoff": 0.4455626896254005,
      "alphaMode": "MASK",
      "doubleSided": true,
      "name": "Decals",
      "pbrMetallicRoughness": {
        "baseColorTexture": {
          "index": 3
        },
        "metallicFactor": 0.0
      }
    },
    {
      "doubleSided": true,
      "name": "Greeble_Tan",
      "pbrMetallicRoughness": {
        "baseColorFactor": [
          0.008568125618069303,
          0.008568125618069303,
          0.008568125618069303,
          1.0
        ],
        "roughnessFactor": 0.5
      }
    },
    {
      "doubleSided": true,
      "name": "Greeble_Brown",
      "pbrMetallicRoughness": {
        "baseColorFactor": [
          0.03954623527673283,
          0.010960094006488246,
          0.006512090792594473,
          1.0
        ],
        "roughnessFactor": 0.5
      }
    }
  ],
  "meshes": [
    {
      "name": "UNSC_Panama_Frigate_0",
      "primitives": [
        {
          "attributes": {
            "NORMAL": 1,
            "POSITION": 0,
            "TEXCOORD_0": 2
          },
          "indices": 3,
          "material": 0,
          "mode": 4
        }
      ]
    },
    {
      "name": "UNSC_Panama_Frigate_1",
      "primitives": [
        {
          "attributes": {
            "NORMAL": 5,
            "POSITION": 4,
            "TEXCOORD_0": 6
          },
          "indices": 7,
          "material": 1,
          "mode": 4
        }
      ]
    },
    {
      "name": "UNSC_Panama_Frigate_2",
      "primitives": [
        {
          "attributes": {
            "NORMAL": 9,
            "POSITION": 8,
            "TEXCOORD_0": 10
          },
          "indices": 11,
          "material": 2,
          "mode": 4
        }
      ]
    },
    {
      "name": "UNSC_Panama_Frigate_3",
      "primitives": [
        {
          "attributes": {
            "NORMAL": 13,
            "POSITION": 12,
            "TEXCOORD_0": 14
          },
          "indices": 15,
          "material": 3,
          "mode": 4
        }
      ]
    },
    {
      "name": "UNSC_Panama_Frigate_4",
      "primitives": [
        {
          "attributes": {
            "NORMAL": 17,
            "POSITION": 16,
            "TEXCOORD_0": 18
          },
          "indices": 19,
          "material": 4,
          "mode": 4
        }
      ]
    },
    {
      "name": "UNSC_Panama_Frigate_4",
      "primitives": [
        {
          "attributes": {
            "NORMAL": 21,
            "POSITION": 20,
            "TEXCOORD_0": 22
          },
          "indices": 23,
          "material": 4,
          "mode": 4
        }
      ]
    },
    {
      "name": "UNSC_Panama_Frigate_5",
      "primitives": [
        {
          "attributes": {
            "NORMAL": 25,
            "POSITION": 24,
            "TEXCOORD_0": 26
          },
          "indices": 27,
          "material": 5,
          "mode": 4
        }
      ]
    },
    {
      "name": "UNSC_Panama_Frigate_6",
      "primitives": [
        {
          "attributes": {
            "NORMAL": 29,
            "POSITION": 28,
            "TEXCOORD_0": 30
          },
          "indices": 31,
          "material": 6,
          "mode": 4
        }
      ]
    },
    {
      "name": "UNSC_Panama_Frigate_7",
      "primitives": [
        {
          "attributes": {
            "NORMAL": 33,
            "POSITION": 32,
            "TEXCOORD_0": 34
          },
          "indices": 35,
          "material": 7,
          "mode": 4
        }
      ]
    },
    {
      "name": "UNSC_Panama_Frigate_8",
      "primitives": [
        {
          "attributes": {
            "NORMAL": 37,
            "POSITION": 36,
            "TEXCOORD_0": 38
          },
          "indices": 39,
          "material": 8,
          "mode": 4
        }
      ]
    },
    {
      "name": "UNSC_Panama_Frigate_9",
      "primitives": [
        {
          "attributes": {
            "NORMAL": 41,
            "POSITION": 40,
            "TEXCOORD_0": 42
          },
          "indices": 43,
          "material": 9,
          "mode": 4
        }
      ]
    },
    {
      "name": "UNSC_Panama_Frigate_10",
      "primitives": [
        {
          "attributes": {
            "NORMAL": 45,
            "POSITION": 44,
            "TEXCOORD_0": 46
          },
          "indices": 47,
          "material": 10,
          "mode": 4
        }
      ]
    },
    {
      "name": "UNSC_Panama_Frigate_11",
      "primitives": [
        {
          "attributes": {
            "NORMAL": 49,
            "POSITION": 48,
            "TEXCOORD_0": 50
          },
          "indices": 51,
          "material": 11,
          "mode": 4
        }
      ]
    }
  ],
  "nodes": [
    {
      "children": [
        1
      ],
      "matrix": [
        0.5555555820465088,
        0.0,
        0.0,
        0.0,
        0.0,
        2.1269826970935682e-16,
        -0.5555555820465088,
        0.0,
        0.0,
        0.5555555820465088,
        2.1269826970935682e-16,
        0.0,
        0.0,
        2.3665827156630354e-30,
        -1.0658141036401503e-14,
        1.0
      ],
      "name": "Sketchfab_model"
    },
    {
      "children": [
        2
      ],
      "name": "Root"
    },
    {
      "children": [
        3,
        4,
        5,
        6,
        7,
        8,
        9,
        10,
        11,
        12,
        13,
        14,
        15
      ],
      "matrix": [
        0.010000000000000002,
        0.0,
        0.0,
        0.0,
        0.0,
        -0.0,
        0.010000000000000002,
        0.0,
        0.0,
        -0.010000000000000002,
        -0.0,
        0.0,
        0.0,
        0.0,
        0.0,
        1.0
      ],
      "name": "UNSC_Panama_Frigate"
    },
    {
      "mesh": 0,
      "name": "UNSC_Panama_Frigate_0"
    },
    {
      "mesh": 1,
      "name": "UNSC_Panama_Frigate_1"
    },
    {
      "mesh": 2,
      "name": "UNSC_Panama_Frigate_2"
    },
    {
      "mesh": 3,
      "name": "UNSC_Panama_Frigate_3"
    },
    {
      "mesh": 4,
      "name": "UNSC_Panama_Frigate_4"
    },
    {
      "mesh": 5,
      "name": "UNSC_Panama_Frigate_4"
    },
    {
      "mesh": 6,
      "name": "UNSC_Panama_Frigate_5"
    },
    {
      "mesh": 7,
      "name": "UNSC_Panama_Frigate_6"
    },
    {
      "mesh": 8,
      "name": "UNSC_Panama_Frigate_7"
    },
    {
      "mesh": 9,
      "name": "UNSC_Panama_Frigate_8"
    },
    {
      "mesh": 10,
      "name": "UNSC_Panama_Frigate_9"
    },
    {
      "mesh": 11,
      "name": "UNSC_Panama_Frigate_10"
    },
    {
      "mesh": 12,
      "name": "UNSC_Panama_Frigate_11"
    }
  ],
  "samplers": [
    {
      "magFilter": 9729,
      "minFilter": 9987,
      "wrapS": 10497,
      "wrapT": 10497
    }
  ],
  "scene": 0,
  "scenes": [
    {
      "name": "Sketchfab_Scene",
      "nodes": [
        0
      ]
    }
  ],
  "textures": [
    {
      "sampler": 0,
      "source": 0
    },
    {
      "sampler": 0,
      "source": 1
    },
    {
      "sampler": 0,
      "source": 2
    },
    {
      "sampler": 0,
      "source": 3
    }
  ]
}
